<?xml version="1.0" encoding="UTF-8"?>
<svg version="1.1" xmlns="http://www.w3.org/2000/svg" width="512" height="512">
<path d="M0 0 C14.6149603 10.16025018 25.41867564 23.58606997 29.71525574 41.17367554 C30.61220013 46.81333907 30.32522291 52.55620432 30.25 58.25 C30.24097656 59.549375 30.23195313 60.84875 30.22265625 62.1875 C30.19921733 65.37519299 30.1664044 68.5624982 30.125 71.75 C31.17656281 71.74111755 32.22812561 71.73223511 33.31155396 71.7230835 C43.22830565 71.64194753 53.14498988 71.58201049 63.06199837 71.54275131 C68.16028823 71.52188908 73.25830983 71.49359617 78.35644531 71.44824219 C83.27774563 71.40473604 88.19878815 71.38085263 93.12026596 71.37049103 C94.99654066 71.36310824 96.87280146 71.34869127 98.74896622 71.32707977 C101.37999049 71.29798223 104.00995363 71.29404662 106.64111328 71.29589844 C107.4143544 71.28151733 108.18759552 71.26713623 108.98426819 71.25231934 C114.21409421 71.29206912 117.17136599 72.33878678 121.125 75.75 C125.42321444 80.66867504 125.69195212 84.46507575 125.49584961 90.68896484 C125.4809722 91.59498129 125.4660948 92.50099773 125.45076656 93.43446922 C125.16240461 106.16548125 124.22644804 118.87497627 123.34056973 131.57552385 C123.08644713 135.24014425 122.84035579 138.90530529 122.59324646 142.57040405 C122.178379 148.70757875 121.75842768 154.84438679 121.3347168 160.98095703 C120.73925779 169.60510908 120.15346437 178.22989843 119.56940758 186.85482907 C119.11200381 193.60387151 118.65182358 200.35272509 118.19140625 207.1015625 C118.14268159 207.81639817 118.09395693 208.53123384 118.04375577 209.26773119 C117.71947016 214.02319525 117.39267007 218.7784802 117.06469727 223.53369141 C116.98413589 224.71415039 116.90357452 225.89460937 116.8205719 227.11083984 C116.74346985 228.22310944 116.6663678 229.33537903 116.58692932 230.48135376 C116.52148202 231.43210093 116.45603472 232.38284809 116.38860416 233.36240578 C116.01510861 238.16222143 115.56086854 242.95544602 115.125 247.75 C16.785 247.75 -81.555 247.75 -182.875 247.75 C-189.29142012 156.63683432 -189.29142012 156.63683432 -190.38842773 140.44897461 C-190.5931869 137.43309204 -190.80195677 134.41751887 -191.01342773 131.40209961 C-193.05392585 102.25502487 -193.05392585 102.25502487 -193.26171875 89.98046875 C-193.2870015 89.20786209 -193.31228424 88.43525543 -193.33833313 87.63923645 C-193.34841498 82.51057967 -192.20524209 79.62531027 -188.875 75.75 C-184.12784419 71.86293347 -180.35209124 71.18503335 -174.39111328 71.29589844 C-173.56118362 71.29531433 -172.73125397 71.29473022 -171.87617493 71.29412842 C-169.1487867 71.29690228 -166.42250842 71.32796049 -163.6953125 71.359375 C-161.79817298 71.36683989 -159.90102573 71.37253165 -158.00387573 71.37652588 C-153.02244597 71.39176269 -148.04148634 71.43102769 -143.0602417 71.4753418 C-137.97251748 71.51633664 -132.88471695 71.53454589 -127.796875 71.5546875 C-117.82271067 71.59752382 -107.8488945 71.66575151 -97.875 71.75 C-97.9064209 70.57981323 -97.9064209 70.57981323 -97.93847656 69.38598633 C-98.02271737 65.77829395 -98.07399916 62.17080953 -98.125 58.5625 C-98.15851563 57.33595703 -98.19203125 56.10941406 -98.2265625 54.84570312 C-98.41903834 36.60861744 -91.31411169 21.51473536 -78.74609375 8.5546875 C-57.83588439 -11.12110878 -24.60239506 -14.679315 0 0 Z M-70.28125 24.8125 C-82.0448662 39.11336676 -81.875 53.76801098 -81.875 71.75 C-50.195 71.75 -18.515 71.75 14.125 71.75 C14.125 51.15108409 13.48796564 36.48063749 -0.9765625 21.5859375 C-11.90986825 11.27076917 -23.45025865 8.12551778 -38.09765625 8.44140625 C-50.9934592 9.05211337 -61.53733412 15.57364549 -70.28125 24.8125 Z " fill="#FECC13" transform="translate(289.875,104.25)"/>
<path d="M0 0 C97.68 0 195.36 0 296 0 C293.42243444 18.04295894 289.24647872 29.17800557 275.19140625 40.203125 C266.58123887 46.01651461 257.9397094 48.46429693 247.6020813 48.38768005 C246.71178943 48.39306559 245.82149755 48.39845113 244.90422714 48.40399987 C241.95049239 48.41819407 238.99721122 48.41119694 236.04345703 48.40405273 C233.91369266 48.40976079 231.78393134 48.41672673 229.6541748 48.42485046 C223.88963793 48.44274933 218.12525355 48.44161954 212.36069727 48.43590808 C207.53977872 48.43281134 202.71888925 48.43891412 197.89797485 48.44494683 C186.52033739 48.45897986 175.14277504 48.45744105 163.76513672 48.44604492 C152.04647237 48.43456624 140.32803696 48.44863812 128.60940278 48.4754414 C118.53009978 48.49762785 108.45086848 48.50422908 98.37154281 48.49836498 C92.35957917 48.49500112 86.34776224 48.49737262 80.33581924 48.51461601 C74.68038679 48.53012981 69.02529236 48.52608023 63.36987305 48.50731087 C61.301157 48.50363721 59.23241566 48.50669753 57.16372299 48.51719666 C39.07073743 48.60197192 26.48577343 45.82558148 12.75 33.3125 C4.46274753 24.58995751 0 11.99236946 0 0 Z " fill="#FEBB07" transform="translate(108,368)"/>
<path d="M0 0 C14.62724233 10.16878859 25.43349052 23.59918098 29.70411682 41.20947266 C30.61830951 46.72770582 30.42969474 52.3393395 30.42578125 57.91796875 C30.42967526 59.28461333 30.43401137 60.65125671 30.43876648 62.01789856 C30.44618995 64.86801092 30.44596402 67.71799928 30.44067383 70.56811523 C30.43485852 74.2130902 30.45187791 77.85756042 30.4750185 81.5024519 C30.48976781 84.31894373 30.49062639 87.13531393 30.48750877 89.95183754 C30.48826833 91.94652672 30.50211578 93.94119711 30.51618958 95.93583679 C30.50996078 97.15092422 30.50373199 98.36601166 30.49731445 99.61791992 C30.49794388 100.68411057 30.4985733 101.75030121 30.4992218 102.84880066 C30.07003439 106.17612745 29.10089298 108.06168551 27.125 110.75 C24.31584526 112.15457737 22.23689466 111.99895157 19.125 111.75 C15.9890843 109.97015595 15.28397264 109.22691793 14.125 105.75 C14.02018502 104.17772013 13.96920811 102.60154816 13.95141602 101.02587891 C13.93792618 100.06702789 13.92443634 99.10817688 13.91053772 98.12026978 C13.89488014 96.56413467 13.89488014 96.56413467 13.87890625 94.9765625 C13.84593259 92.76692365 13.81272161 90.55728833 13.77929688 88.34765625 C13.73216486 84.87453962 13.68780144 81.40143349 13.64819336 77.92822266 C13.61158089 47.32628047 13.61158089 47.32628047 -1.75390625 21.80859375 C-12.33137182 11.91492393 -24.05508731 9.13856162 -38.09765625 9.44140625 C-50.71822637 10.03907915 -60.6384775 16.01811358 -69.1875 25.0625 C-79.72476293 37.55820371 -80.97496167 51.71165415 -81.0859375 67.390625 C-81.11397677 69.61719522 -81.14264097 71.84375765 -81.171875 74.0703125 C-81.21327029 77.5485028 -81.25019968 81.02654253 -81.27636719 84.50488281 C-81.30393046 87.88376006 -81.34976141 91.26199482 -81.3984375 94.640625 C-81.40169037 95.68027405 -81.40494324 96.7199231 -81.40829468 97.79107666 C-81.56311959 106.87144033 -81.56311959 106.87144033 -84.875 110.75 C-87.68415474 112.15457737 -89.76310534 111.99895157 -92.875 111.75 C-96.0109157 109.97015595 -96.71602736 109.22691793 -97.875 105.75 C-97.98366768 103.81025085 -98.03388402 101.86702256 -98.05200195 99.92431641 C-98.06483719 98.72521637 -98.07767242 97.52611633 -98.09089661 96.29067993 C-98.09828354 94.99077118 -98.10567047 93.69086243 -98.11328125 92.3515625 C-98.11735678 91.68652081 -98.1214323 91.02147911 -98.12563133 90.33628464 C-98.14649359 86.807038 -98.16078703 83.2778301 -98.17016602 79.74853516 C-98.18115028 76.13662671 -98.21545468 72.52534809 -98.25533772 68.91366005 C-98.28175399 66.10972108 -98.28988033 63.30592541 -98.29344749 60.50187302 C-98.30057295 58.53408709 -98.32691563 56.56640008 -98.35383606 54.5987854 C-98.31076565 36.48148647 -91.24133292 21.43968643 -78.74609375 8.5546875 C-57.83588439 -11.12110878 -24.60239506 -14.679315 0 0 Z " fill="#36393B" transform="translate(289.875,104.25)"/>
</svg>
